<?xml version="1.0" ?>
<!DOCTYPE svg  PUBLIC '-//W3C//DTD SVG 1.1//EN'  'http://www.w3.org/Graphics/SVG/1.1/DTD/svg11.dtd'>
<!-- Uploaded to: SVG Repo, www.svgrepo.com, Generator: SVG Repo Mixer Tools -->
<svg fill="#000000" width="800px" height="800px" viewBox="0 0 100 100" style="fill-rule:evenodd;clip-rule:evenodd;stroke-linejoin:round;stroke-miterlimit:2;" version="1.1" xml:space="preserve" xmlns="http://www.w3.org/2000/svg" xmlns:serif="http://www.serif.com/" xmlns:xlink="http://www.w3.org/1999/xlink">
<g id="Icon">
<path d="M43.809,18.743c0.364,-1.242 0.803,-2.455 1.41,-3.67c0.122,-0.243 0.135,-0.512 0.058,-0.753c0.096,-0.3 0.049,-0.642 -0.157,-0.911c-0.334,-0.439 -0.962,-0.524 -1.401,-0.19c-5.008,3.816 -7.402,10.1 -9.451,15.837c-0.102,0.286 -0.222,0.593 -0.352,0.914c-0.022,-0.078 -0.054,-0.152 -0.093,-0.221c-0.004,-0.306 -0.148,-0.606 -0.415,-0.799c-0.448,-0.322 -1.074,-0.22 -1.396,0.228c-2.01,2.794 -2.788,6.002 -3.376,9.337c-0.582,3.295 -0.997,6.455 -0.989,9.696c-0.273,-0.474 -0.484,-0.927 -0.484,-1.336c0,-0.291 -0.124,-0.553 -0.323,-0.736c-0.177,-0.281 -0.49,-0.468 -0.846,-0.468c-0.552,0 -1,0.448 -1,1c-0,7.476 1.235,14.11 5.333,20.549c1.334,2.097 3.32,4.035 5.049,5.812c0.337,0.347 0.855,0.732 1.331,1.148c0.31,0.27 0.624,0.535 0.729,0.848c0.033,0.1 0.081,0.191 0.14,0.272c-0.024,0.134 -0.02,0.275 0.015,0.415c0.023,0.093 0.059,0.179 0.104,0.258c-0.871,5.29 -0.169,10.712 1.038,15.919c0.125,0.538 0.663,0.873 1.2,0.749c0.538,-0.125 0.873,-0.662 0.749,-1.2c-1.163,-5.016 -1.861,-10.238 -0.982,-15.328c0.896,-0.422 1.758,-1.074 2.541,-1.556c1.46,-0.898 2.99,-1.687 4.456,-2.581c5.4,-3.292 10.826,-7.514 15.072,-12.195c1.863,-2.053 3.855,-4.441 4.639,-7.16c0.256,-0.34 0.275,-0.82 0.015,-1.184c-0.288,-0.403 -0.821,-0.529 -1.252,-0.318c-0.136,0.052 -0.26,0.133 -0.363,0.237c-0.461,0.311 -0.943,0.58 -1.426,0.85c1.306,-2.105 2.418,-4.374 3.234,-6.599c0.902,-2.461 1.196,-5.279 2.366,-7.62c0.158,-0.315 0.133,-0.675 -0.034,-0.958c-0.039,-0.184 -0.129,-0.359 -0.272,-0.502c-0.39,-0.39 -1.024,-0.39 -1.414,0c-0.558,0.557 -1.154,1.077 -1.759,1.587c0.509,-1.049 0.939,-2.16 1.32,-3.295c0.878,-2.614 1.501,-5.355 2.327,-7.709c0.5,-1.426 1.02,-2.832 1.428,-4.288c0.026,-0.091 0.174,-0.83 0.214,-1.031c0.116,-0.178 0.174,-0.391 0.161,-0.606c0.259,-0.36 0.255,-0.864 -0.041,-1.222c-0.351,-0.425 -0.982,-0.485 -1.408,-0.134c-0.717,0.593 -1.55,1.501 -2.436,2.322c-0.339,0.315 -0.684,0.62 -1.034,0.878c-0.008,-2.304 -0.668,-4.556 -1.432,-6.801c-0.906,-2.658 -1.964,-5.305 -1.964,-8.052c-0,-0.296 -0.129,-0.562 -0.334,-0.746c-0.014,-0.057 -0.033,-0.114 -0.058,-0.169c-0.224,-0.505 -0.816,-0.732 -1.32,-0.508c-3.162,1.405 -6.271,2.589 -9.133,4.612c-3.009,2.126 -5.483,4.753 -7.984,7.378Zm17.431,33.105c-1.013,0.633 -2.066,1.215 -3.038,1.844c-3.691,2.388 -7.099,4.85 -10.997,6.933c-0.948,0.507 -2.436,1.534 -3.875,2.275c-1.039,0.535 -2.061,0.915 -2.864,0.915c-0.04,0 -0.079,-0.004 -0.116,-0.013c-0.594,3.408 -0.96,6.856 -1.039,10.287c0.661,-0.369 1.291,-0.871 1.882,-1.235c1.462,-0.9 2.994,-1.69 4.463,-2.585c5.241,-3.196 10.511,-7.288 14.632,-11.832c1.084,-1.195 2.242,-2.504 3.109,-3.942c-0.25,0.159 -0.496,0.329 -0.734,0.516c-0.311,0.244 -0.747,0.635 -1.199,0.912c-0.45,0.275 -0.923,0.439 -1.354,0.439c-0.505,-0 -0.923,-0.375 -0.99,-0.861c-0.117,-0.321 -0.066,-0.693 0.165,-0.976c0.684,-0.836 1.34,-1.736 1.955,-2.677Zm-34.075,-0.743c0.44,5.326 1.796,10.243 4.849,15.041c1.264,1.986 3.158,3.809 4.796,5.492c0.378,0.389 1.006,0.825 1.511,1.307c0.009,0.008 0.017,0.016 0.025,0.024c0.125,-3.095 0.474,-6.2 1.008,-9.273c-0.98,-0.838 -2.21,-1.839 -3.141,-2.714c-2.497,-2.345 -5.407,-4.737 -7.194,-7.761c-0.161,-0.008 -0.318,-0.055 -0.457,-0.136c-0.356,-0.119 -0.629,-0.434 -0.676,-0.83c-0.004,-0.036 -0.008,-0.072 -0.012,-0.108c-0.204,-0.324 -0.451,-0.676 -0.709,-1.042Zm37.404,-5.735c-5.188,4.197 -10.777,8.13 -16.661,11.194c-1.75,0.912 -3.338,2.047 -5.144,2.862c-0.275,0.123 -0.75,0.366 -1.197,0.541c-0.167,0.065 -0.332,0.12 -0.486,0.161c-0.199,0.891 -0.383,1.787 -0.552,2.686c0.667,-0.02 1.493,-0.365 2.343,-0.803c1.434,-0.738 2.917,-1.763 3.861,-2.267c3.874,-2.071 7.258,-4.519 10.926,-6.892c1.58,-1.022 3.389,-1.905 4.86,-3.12c0.793,-1.424 1.488,-2.9 2.05,-4.362Zm-34.857,4.878c0.026,0.417 0.06,0.836 0.104,1.257c0.052,0.093 0.101,0.183 0.144,0.269c0.163,0.327 0.131,0.7 -0.052,0.987c1.736,2.922 4.572,5.221 6.989,7.492c0.785,0.737 1.785,1.565 2.663,2.306c0.16,-0.85 0.334,-1.697 0.521,-2.54c-0.003,-0.004 -0.006,-0.008 -0.009,-0.012c-1.601,-2.058 -3.824,-3.687 -5.946,-5.411c-1.629,-1.325 -3.198,-2.704 -4.414,-4.348Zm32.461,-10.483c-0.78,0.386 -1.573,0.745 -2.318,1.137c-3.281,1.727 -6.451,3.595 -9.77,5.254c-1.83,0.915 -4.073,2.792 -6,3.473c-0.504,1.528 -1.003,3.059 -1.464,4.603c-0.467,1.562 -0.894,3.146 -1.275,4.746c0.385,-0.161 0.772,-0.358 1.007,-0.464c1.788,-0.807 3.36,-1.934 5.094,-2.837c6.293,-3.277 12.244,-7.561 17.724,-12.092c0.317,-1.09 0.574,-2.217 0.876,-3.322c-0.398,0.334 -0.795,0.669 -1.183,1.013c-0.339,0.3 -0.956,0.935 -1.54,1.295c-0.408,0.251 -0.821,0.382 -1.177,0.382c-0.548,-0 -0.994,-0.442 -1,-0.989c-0.223,-0.383 -0.171,-0.883 0.157,-1.211c0.311,-0.31 0.6,-0.641 0.869,-0.988Zm-30.238,-6.203c-0.64,1.689 -1.008,3.476 -1.33,5.3c-0.566,3.208 -0.975,6.281 -0.958,9.439c1.21,2.211 3.12,3.901 5.11,5.519c1.969,1.6 4.017,3.129 5.607,4.968c0.387,-1.631 0.822,-3.248 1.299,-4.842c0.454,-1.521 0.945,-3.029 1.442,-4.535c-2.016,-3.513 -5.344,-6.286 -7.704,-9.531c-0.562,-0.773 -1.338,-1.725 -1.871,-2.726c-0.144,-0.271 -0.27,-0.545 -0.372,-0.821c-0.474,0.009 -0.903,-0.322 -0.999,-0.804c-0.135,-0.674 -0.198,-1.324 -0.224,-1.967Zm32.801,1.176c-3.729,2.806 -8.065,4.699 -12.248,6.818c-1.699,0.861 -3.44,1.647 -5.101,2.579c-0.348,0.195 -0.814,0.606 -1.269,0.946c-0.237,0.178 -0.474,0.338 -0.694,0.455c-0.302,0.948 -0.612,1.893 -0.924,2.837c1.705,-0.816 3.572,-2.329 5.138,-3.111c3.312,-1.657 6.476,-3.521 9.752,-5.245c1.268,-0.668 2.687,-1.226 3.924,-2.009c0.561,-1.024 1.019,-2.131 1.422,-3.27Zm-30.013,-1.493c-0.253,0.731 -0.431,1.449 -0.431,2.088c0,0.232 -0.079,0.446 -0.212,0.616c0.089,0.246 0.204,0.492 0.333,0.735c0.51,0.959 1.258,1.867 1.797,2.608c2.21,3.039 5.255,5.674 7.307,8.873c0.29,-0.875 0.578,-1.751 0.858,-2.629c-2.359,-3.098 -5.249,-5.784 -7.515,-8.956c-0.685,-0.959 -1.36,-1.93 -1.95,-2.951c-0.045,-0.079 -0.111,-0.222 -0.187,-0.384Zm7.337,-15.619c-2.81,3.477 -4.428,7.958 -5.908,12.103c-0.241,0.674 -0.612,1.475 -0.96,2.306c0.036,0.046 0.071,0.096 0.105,0.151c0.193,0.308 0.381,0.773 0.48,0.943c0.573,0.994 1.231,1.937 1.897,2.87c2.124,2.973 4.798,5.518 7.067,8.379c0.521,-1.68 1.006,-3.371 1.411,-5.09c0.694,-2.946 1.468,-5.818 2.365,-8.646c-0.019,-0.014 -0.038,-0.03 -0.055,-0.047c-1.801,-1.802 -4.248,-3.584 -5.713,-5.726c-0.413,-0.603 -0.92,-1.327 -1.14,-2.084c-0.07,-0.042 -0.137,-0.093 -0.198,-0.154c-0.084,-0.084 -0.15,-0.179 -0.198,-0.281c-0.168,-0.227 -0.239,-0.524 -0.171,-0.82c0.311,-1.346 0.622,-2.637 1.018,-3.904Zm21.978,5.321c-1.358,0.78 -2.627,1.75 -3.974,2.542c-3.235,1.903 -7.406,4.22 -10.674,6.088c-0.043,0.025 -0.088,0.042 -0.135,0.053c-0.798,2.583 -1.497,5.205 -2.13,7.888c-0.355,1.505 -0.77,2.989 -1.217,4.463c0.361,-0.285 0.711,-0.562 0.99,-0.718c1.673,-0.939 3.427,-1.732 5.138,-2.599c4.576,-2.318 9.347,-4.348 13.268,-7.656c0.694,-2.256 1.253,-4.549 1.959,-6.561c0.304,-0.866 0.616,-1.725 0.905,-2.593c-0.1,0.09 -0.201,0.178 -0.301,0.263c-0.695,0.59 -1.42,1.077 -2.141,1.351c-0.207,0.354 -0.622,0.557 -1.048,0.477c-0.542,-0.101 -0.9,-0.624 -0.798,-1.167c0.115,-0.616 0.163,-1.226 0.158,-1.831Zm-0.333,-2.707c-2.943,1.372 -5.744,3.189 -8.527,4.843c-1.28,0.762 -3.516,1.981 -4.779,3.075c-0.244,0.697 -0.48,1.395 -0.707,2.096c3.126,-1.778 6.891,-3.877 9.865,-5.627c1.492,-0.877 2.891,-1.968 4.416,-2.788c-0.057,-0.535 -0.15,-1.068 -0.268,-1.599Zm-20.176,1.679c-0.233,0.239 -0.467,0.476 -0.704,0.712c-0.055,0.056 -0.116,0.104 -0.181,0.144c0.213,0.555 0.62,1.077 0.93,1.53c1.35,1.972 3.561,3.622 5.285,5.278c0.136,-0.414 0.275,-0.827 0.417,-1.239c-1.649,-1.932 -4.351,-4.164 -5.747,-6.425Zm16.29,-12.503c-2.377,1.027 -4.701,2.048 -6.872,3.582c-3.304,2.336 -5.938,5.3 -8.698,8.177c1.207,2.13 3.709,4.23 5.406,6.089c0.757,-2.116 1.594,-4.214 2.529,-6.308c1.962,-4.393 3.991,-8.411 7.635,-11.54Zm0.939,0.517c-3.714,3.062 -5.71,7.063 -7.661,11.431c-0.754,1.689 -1.444,3.382 -2.08,5.085c1.234,-0.838 2.695,-1.658 3.65,-2.225c2.867,-1.705 5.755,-3.576 8.791,-4.972c-0.218,-0.795 -0.48,-1.587 -0.749,-2.379c-0.783,-2.297 -1.641,-4.594 -1.951,-6.94Z"/>
</g>
</svg>