<?xml version="1.0" ?><!DOCTYPE svg  PUBLIC '-//W3C//DTD SVG 1.1//EN'  'http://www.w3.org/Graphics/SVG/1.1/DTD/svg11.dtd'><!-- Uploaded to: SVG Repo, www.svgrepo.com, Generator: SVG Repo Mixer Tools -->
<svg fill="#000000" width="800px" height="800px" viewBox="0 0 64 64" enable-background="new 0 0 64 64" id="Layer_1" version="1.1" xml:space="preserve" xmlns="http://www.w3.org/2000/svg" xmlns:xlink="http://www.w3.org/1999/xlink"><path d="M18.968,47.18c-1.248,0-2.815-0.948-3.199-5.467c-0.408-4.812-0.57-9.846-0.494-15.39c0.033-2.389,0.345-6.617,2.074-8.093  c1.47-1.256,3.757-1.299,5.428-1.33l0.367-0.007c2.12-0.051,8.885-0.074,13.013-0.074c1.637,0,3.012,0.003,3.818,0.01l0.441,0.002  c2.291,0.006,5.753,0.015,6.873,2.207c2.014,3.94,1.449,10.513,1.146,14.043c-0.121,1.405-0.626,4.733-2.83,6.714  c-1.54,1.385-4.384,1.317-6.228,1.284l-0.339-0.006c-1.822-0.028-3.666-0.047-5.498-0.066l-2.629-0.026  c-2.545,0-5.395,0.264-7.235,2.226c-0.322,0.342-0.621,0.746-0.937,1.172c-0.589,0.794-1.198,1.616-2.069,2.208  C20.089,46.98,19.517,47.18,18.968,47.18z M36.156,18.82c-4.874,0-11.056,0.027-12.965,0.073L22.814,18.9  c-1.368,0.025-3.241,0.061-4.166,0.851c-0.764,0.653-1.329,3.367-1.373,6.6c-0.075,5.478,0.084,10.447,0.487,15.193  c0.21,2.48,0.844,3.636,1.206,3.636c0.064,0,0.249-0.024,0.579-0.249c0.59-0.4,1.074-1.053,1.586-1.743  c0.336-0.454,0.684-0.923,1.085-1.351c2.363-2.517,5.72-2.856,8.693-2.856l2.649,0.026c1.836,0.019,3.683,0.039,5.509,0.066  l0.346,0.006c0.302,0.006,0.633,0.012,0.98,0.012c0.742,0,3.001,0,3.873-0.784c1.673-1.504,2.074-4.23,2.168-5.333  c0.271-3.16,0.824-9.598-0.929-13.028c-0.564-1.105-3.513-1.113-5.097-1.117l-0.452-0.002C39.156,18.823,37.786,18.82,36.156,18.82z  "/><path d="M37.115,26.205c-1.094,0-2.333-0.002-3.273-0.003L32.915,26.2c-0.552,0-1-0.449-0.999-1.001c0-0.552,0.448-0.999,1-0.999  c0,0,0,0,0,0l0.928,0.001c1.678,0.002,4.306,0.006,5.358-0.001c0.002,0,0.005,0,0.007,0c0.549,0,0.996,0.443,1,0.993  c0.004,0.552-0.441,1.003-0.993,1.007C38.75,26.203,37.978,26.205,37.115,26.205z"/><path d="M31.562,32.915c-3.105,0-6.106-0.001-6.771-0.002c-0.552,0-1-0.449-0.999-1.001c0-0.552,0.448-0.999,1-0.999c0,0,0,0,0,0  c1.399,0.001,13.131,0.005,14.41-0.004c0.002,0,0.005,0,0.007,0c0.549,0,0.996,0.443,1,0.993c0.004,0.552-0.44,1.003-0.993,1.007  C38.544,32.913,34.99,32.915,31.562,32.915z"/></svg>