<?xml version="1.0" ?>
<!DOCTYPE svg  PUBLIC '-//W3C//DTD SVG 1.1//EN'  'http://www.w3.org/Graphics/SVG/1.1/DTD/svg11.dtd'>
<!-- Uploaded to: SVG Repo, www.svgrepo.com, Generator: SVG Repo Mixer Tools -->
<svg fill="#000000" width="800px" height="800px" viewBox="0 0 100 100" style="fill-rule:evenodd;clip-rule:evenodd;stroke-linejoin:round;stroke-miterlimit:2;" version="1.1" xml:space="preserve" xmlns="http://www.w3.org/2000/svg" xmlns:serif="http://www.serif.com/" xmlns:xlink="http://www.w3.org/1999/xlink">
<g id="Icon">
<path d="M27.167,11.311c-2.83,3.027 -5.759,5.754 -7.774,9.478c-4.858,8.977 -5.874,19.512 -5.275,29.53c0.368,6.15 1.293,12.392 4.085,17.768c-0.41,2.703 -1.093,5.283 -1.717,7.944c-0.596,2.546 -1.183,5.445 -2.475,7.772c-2.047,1.783 -4.435,3.167 -6.591,4.804c-0.439,0.334 -0.525,0.962 -0.191,1.401c0.333,0.44 0.961,0.526 1.401,0.192c2.184,-1.659 4.596,-3.071 6.674,-4.871c0.094,-0.058 0.179,-0.132 0.251,-0.22c0.035,-0.032 0.071,-0.064 0.106,-0.096l0.016,-0.014c2.519,-1.199 4.854,-2.734 7.375,-3.942c5.251,-2.517 10.113,-4.613 14.748,-8.125c0.007,-0.001 0.014,-0.001 0.021,-0.002c15.901,-1.419 30.408,-5.117 41.916,-16.709c5.099,-5.136 8.698,-12.235 12.838,-18.151c0.159,-0.227 0.21,-0.499 0.164,-0.753c-0.02,-0.446 -0.34,-0.839 -0.798,-0.934c-8.018,-1.649 -17.737,-1.992 -25.489,0.739c-2.353,0.829 -4.767,1.789 -6.967,3.081c0.101,-0.626 0.18,-1.254 0.25,-1.874c0.643,-5.696 -0.784,-10.954 -3.39,-15.935c-0.247,-0.472 -0.817,-0.664 -1.296,-0.449c-0.03,0.006 -0.06,0.014 -0.09,0.023c-3.658,1.132 -6.781,3.048 -9.966,5.137c-2.766,1.814 -5.12,3.743 -7.295,5.906c-0.541,-8.932 -4.221,-15.684 -8.79,-21.933c-0.326,-0.445 -0.952,-0.542 -1.398,-0.217c-0.161,0.118 -0.277,0.276 -0.343,0.45Zm-3.522,63.66c-1.323,1.858 -2.618,3.791 -4.021,5.626c0.842,-0.469 1.692,-0.925 2.563,-1.343c2.835,-1.359 5.556,-2.588 8.188,-3.994c-0.42,0.067 -0.834,0.121 -1.237,0.162c-1.855,0.19 -3.667,-0.212 -5.493,-0.451Zm-3.879,-4.264c-0.392,1.936 -0.877,3.837 -1.332,5.78c-0.264,1.124 -0.531,2.31 -0.851,3.49c1.614,-2.038 3.057,-4.238 4.549,-6.328c-0.882,-0.933 -1.667,-1.917 -2.366,-2.942Zm36.045,-44.769c-0.462,1.891 -0.92,3.716 -1.916,5.495c-0.217,0.387 -0.641,1.521 -1.082,2.269c-0.118,0.202 -0.244,0.378 -0.368,0.52c0.316,0.256 0.616,0.531 0.878,0.825c0.606,0.679 1.02,1.46 1.064,2.344c0.054,1.076 -0.266,1.707 -0.714,2.034c-0.462,0.338 -1.116,0.387 -1.842,0.162c-0.797,-0.246 -1.698,-0.825 -2.45,-1.538c-1.029,1.163 -2.17,2.285 -3.083,3.526c-1.549,2.106 -2.755,4.476 -4.261,6.616c-0.592,0.841 -1.237,1.636 -1.912,2.412c-0.028,0.032 -0.338,0.415 -0.44,0.542c-0.005,0.058 -0.02,0.115 -0.045,0.168c1.512,0.799 2.573,2.518 3.387,3.907c0.245,0.418 0.777,1.687 0.731,2.698c-0.023,0.5 -0.182,0.942 -0.506,1.254c-0.222,0.214 -0.525,0.374 -0.938,0.435c-1.451,0.215 -2.362,-0.436 -3.064,-1.366c-0.594,-0.787 -1.016,-1.795 -1.559,-2.498c-0.047,-0.061 -0.078,-0.129 -0.093,-0.2c-0.033,-0.052 -0.065,-0.105 -0.098,-0.161c-1.212,1.625 -2.405,3.303 -3.678,4.876c-0.804,0.993 -2.232,2.33 -2.906,3.497c1.142,1.375 1.885,3.009 1.811,4.859c-0.028,0.692 -0.314,1.077 -0.667,1.27c-0.475,0.26 -1.194,0.158 -1.851,-0.242c-0.652,-0.397 -1.561,-1.229 -2.181,-2.133c-0.023,-0.034 -0.046,-0.068 -0.068,-0.102c-1.209,1.192 -2.48,3.592 -2.98,5.035c-0.046,0.136 -0.11,0.391 -0.194,0.678c1.376,0.216 2.749,0.456 4.149,0.313c2.62,-0.267 5.752,-1.145 7.815,-2.313c0.114,-0.065 0.237,-0.105 0.36,-0.121c2.469,-1.569 4.7,-3.588 7.008,-5.668c1.488,-1.34 2.845,-2.734 4.078,-4.187c0.019,-0.026 0.039,-0.051 0.063,-0.074c4.159,-4.924 6.901,-10.531 8.508,-17.079c0.095,-0.385 0.202,-0.771 0.314,-1.157c-0.108,-0.219 -0.137,-0.478 -0.062,-0.73c0.39,-1.303 0.578,-2.669 0.728,-4c0.486,-4.299 -0.318,-8.326 -1.936,-12.166Zm-0.856,-1.866c-3.221,1.094 -6.013,2.834 -8.865,4.705c-3.175,2.082 -5.782,4.323 -8.207,6.916c-0.099,0.107 -0.217,0.187 -0.343,0.24c-0.183,0.223 -0.462,0.366 -0.773,0.366c-0.037,0 -0.073,-0.002 -0.108,-0.005c-0.953,1.069 -1.884,2.199 -2.817,3.399c-2.272,2.924 -4.496,5.664 -5.914,9.14c-0.167,0.409 -0.317,0.819 -0.455,1.231c0.695,0.77 1.752,1.861 2.6,2.956c0.64,0.826 1.158,1.66 1.357,2.371c0.144,0.514 0.264,1.438 0.045,2.062c-0.099,0.283 -0.261,0.514 -0.486,0.671c-0.226,0.157 -0.521,0.248 -0.909,0.208c-1.092,-0.115 -1.777,-0.797 -2.388,-1.552c-0.466,-0.575 -0.866,-1.21 -1.529,-1.434c-0.182,0.85 -0.37,1.703 -0.593,2.556c-0.593,2.266 -1.638,4.432 -1.985,6.761c-0.369,2.48 -0.2,5.064 -0.013,7.598c0.108,0.115 0.218,0.228 0.329,0.342c0.056,-0.208 0.099,-0.386 0.134,-0.488c0.568,-1.641 2.078,-4.407 3.445,-5.628c-0.123,-0.321 -0.192,-0.636 -0.192,-0.93c0,-0.021 0.002,-0.043 0.005,-0.064c-0.029,-0.04 -0.052,-0.084 -0.068,-0.133c-0.246,-0.738 -0.285,-1.846 -0.018,-2.557c0.154,-0.412 0.41,-0.706 0.733,-0.841c0.412,-0.171 1.023,-0.115 1.797,0.577c0.164,0.147 0.324,0.297 0.479,0.452c0.753,-1.145 2.058,-2.411 2.828,-3.362c1.323,-1.634 2.559,-3.384 3.82,-5.066c0.044,-0.059 0.099,-0.105 0.16,-0.138c-0.208,-0.495 -0.374,-1.022 -0.442,-1.5c-0.1,-0.704 0.026,-1.309 0.382,-1.668c0.318,-0.32 0.86,-0.507 1.72,-0.303c0.01,-0.058 0.029,-0.118 0.057,-0.182c0.12,-0.264 0.582,-0.771 0.63,-0.826c0.652,-0.75 1.276,-1.517 1.849,-2.331c1.51,-2.146 2.719,-4.52 4.272,-6.632c0.95,-1.292 2.142,-2.458 3.206,-3.671c-0.01,-0.014 -0.021,-0.027 -0.031,-0.04c-0.593,-0.748 -0.961,-1.558 -0.961,-2.253c0,-0.04 0.005,-0.079 0.014,-0.116c-0.083,-0.079 -0.139,-0.186 -0.153,-0.308c-0.106,-0.956 0.233,-1.613 0.747,-1.928c0.508,-0.312 1.251,-0.324 2.067,0.166c0.391,0.235 0.828,0.5 1.263,0.797c0.047,-0.041 0.092,-0.107 0.144,-0.18c0.113,-0.158 0.226,-0.356 0.337,-0.57c0.371,-0.719 0.711,-1.603 0.897,-1.935c1.167,-2.083 1.558,-4.236 2.124,-6.482c-0.063,-0.13 -0.126,-0.261 -0.191,-0.391Zm-27.454,-10.21c-2.351,2.449 -4.684,4.802 -6.349,7.879c-4.681,8.649 -5.614,18.807 -5.037,28.459c0.016,0.27 0.033,0.54 0.051,0.809c0.057,-0.144 0.138,-0.286 0.242,-0.423c0.337,-0.443 0.919,-0.836 1.471,-1.019c0.128,-0.043 0.262,-0.031 0.375,0.024c0.938,-0.409 1.962,-0.677 2.976,-0.312c0.906,0.326 1.408,1.16 1.328,1.912c-0.055,0.523 -0.372,1.036 -1.07,1.336c-1.132,0.485 -3.012,0.719 -4.2,0.304c-0.547,-0.192 -0.868,-0.457 -1.042,-0.734c0.544,6.794 1.926,13.597 6.239,18.921c-0.115,-1.796 -0.18,-3.605 -0.022,-5.373c-0.035,-0.069 -0.055,-0.146 -0.055,-0.228c0,-4.557 0.853,-9.246 1.322,-13.777c0.317,-3.062 0.18,-6.151 0.519,-9.209c0.003,-0.019 0.006,-0.036 0.009,-0.054c-0.767,-0.053 -1.443,-0.179 -1.818,-0.313c-0.505,-0.123 -0.969,-0.578 -1.02,-1.108c-0.035,-0.357 0.091,-0.778 0.581,-1.152c0.008,-0.006 0.017,-0.012 0.026,-0.018c0.918,-0.612 1.878,-1.134 2.91,-1.332c0.062,-3.643 1.23,-7.179 1.26,-10.829c-0.158,-0.038 -0.299,-0.079 -0.419,-0.121c-0.29,-0.1 -0.946,-0.359 -1.316,-0.699c-0.254,-0.232 -0.391,-0.507 -0.391,-0.786c-0,-0.301 0.218,-0.676 0.575,-0.976c0.036,-0.056 0.084,-0.106 0.144,-0.146c0.128,-0.086 0.265,-0.163 0.41,-0.232c0.121,-0.067 0.236,-0.122 0.337,-0.161c0.119,-0.047 0.226,-0.074 0.312,-0.085c0.202,-0.06 0.413,-0.109 0.629,-0.15c0.01,-3.437 0.196,-7.072 1.023,-10.407Zm61.9,25.339c-7.169,3.394 -15.08,7.568 -21.444,12.247c0.491,1.412 0.77,2.902 0.857,4.385c0.055,0.934 -0.128,2.067 -0.528,2.695c-0.246,0.385 -0.573,0.609 -0.947,0.647c-0.436,0.044 -1.033,-0.19 -1.693,-1.051c-0.876,-1.141 -1.8,-2.698 -2.43,-4.27c-4.301,2.377 -10.211,5.339 -14.266,7.949c-1.26,1.482 -2.644,2.904 -4.162,4.271c-1.867,1.682 -3.69,3.317 -5.62,4.72c4.841,-0.481 9.546,-1.193 14.063,-2.313c-0.88,-0.898 -1.44,-2.401 -1.615,-3.619c-0.103,-0.07 -0.18,-0.178 -0.208,-0.309c-0.292,-1.363 0.134,-2.544 0.965,-3.022c0.57,-0.328 1.363,-0.371 2.322,0.139c1.413,0.749 2.444,2.493 2.669,4.034c0.079,0.537 0.048,1.112 -0.08,1.641c5.942,-1.869 11.512,-4.58 16.585,-8.567c-0.113,-0.872 -0.378,-1.852 -0.547,-2.83c-0.202,-1.168 -0.264,-2.334 0.12,-3.345c0.572,-1.501 2.503,-1.847 3.565,-0.592c0.379,0.448 0.621,1.019 0.775,1.636c0.119,0.477 0.185,0.981 0.234,1.466c0.101,-0.1 0.201,-0.2 0.302,-0.301c4.381,-4.413 7.62,-10.31 11.083,-15.611Zm-61.206,26.066c0.059,0.082 0.093,0.182 0.093,0.29c0,0.432 0.243,0.917 0.565,1.386c0.535,0.78 1.314,1.502 1.876,1.845c0.187,0.113 0.379,0.198 0.56,0.233c0.108,0.021 0.21,0.03 0.291,-0.014c0.113,-0.062 0.139,-0.212 0.147,-0.433c0.085,-2.124 -1.105,-3.901 -2.656,-5.289c-0.181,-0.162 -0.341,-0.276 -0.486,-0.345c-0.106,-0.051 -0.19,-0.084 -0.261,-0.054c-0.046,0.019 -0.077,0.063 -0.107,0.112c-0.063,0.102 -0.105,0.231 -0.137,0.372c-0.115,0.521 -0.064,1.199 0.094,1.674c0.025,0.075 0.031,0.151 0.021,0.223Zm27.9,2.44c0.274,-0.528 0.372,-1.229 0.28,-1.858c-0.184,-1.253 -1,-2.686 -2.148,-3.296c-0.563,-0.299 -1.021,-0.348 -1.355,-0.156c-0.48,0.276 -0.643,0.953 -0.527,1.725c0.127,0.079 0.218,0.214 0.234,0.374c0.119,1.187 0.668,2.838 1.658,3.536c0.072,0.051 0.142,0.096 0.21,0.136c0.552,-0.147 1.102,-0.301 1.648,-0.461Zm-27.588,-53.743c-0.828,3.255 -1.014,6.81 -1.028,10.177c0.893,-0.07 1.808,-0.05 2.541,-0.08c0.409,-0.016 0.958,0.075 1.335,0.325c0.331,0.221 0.551,0.548 0.551,1.004c0,1.208 -0.793,1.904 -1.895,2.23c-0.864,0.256 -1.924,0.269 -2.817,0.172c-0.062,3.563 -1.179,7.021 -1.256,10.579c0.289,0.009 0.584,0.046 0.885,0.116c0.38,0.089 0.879,0.245 1.244,0.516c0.315,0.233 0.538,0.545 0.595,0.944c0.175,1.225 -0.636,1.941 -1.849,2.256c-0.483,0.125 -1.029,0.184 -1.574,0.197c0.008,0.046 0.01,0.093 0.004,0.141c-0.339,3.056 -0.202,6.142 -0.518,9.202c-0.3,2.901 -0.761,5.866 -1.05,8.819c0.331,-0.966 0.67,-1.931 0.927,-2.913c0.812,-3.102 1.176,-6.193 2.4,-9.193c1.453,-3.563 3.721,-6.38 6.05,-9.376c0.927,-1.193 1.852,-2.316 2.798,-3.381c-0.054,-0.123 -0.083,-0.258 -0.083,-0.4c-0,-8.762 -3.131,-15.351 -7.26,-21.335Zm61.137,24.019c-6.167,-1.068 -13.149,-1.316 -19.288,0.093c0.629,0.971 1.183,2.022 1.214,3.191c0.027,1.05 -0.36,1.991 -1.037,2.361c-0.479,0.263 -1.132,0.293 -1.947,-0.174c-0.306,-0.175 -0.585,-0.46 -0.838,-0.821c-0.322,-0.459 -0.608,-1.048 -0.889,-1.625c-0.215,-0.44 -0.426,-0.873 -0.656,-1.222c-0.087,-0.133 -0.173,-0.254 -0.264,-0.352c-2.511,0.931 -5.042,2.053 -7.212,3.657c-0.039,0.03 -0.08,0.056 -0.123,0.078c-0.179,0.145 -0.407,0.225 -0.644,0.221c-0.078,0.28 -0.153,0.56 -0.222,0.839c-1.412,5.755 -3.682,10.8 -6.99,15.301c3.85,-2.261 8.56,-4.653 12.125,-6.629c-0.201,-0.632 -0.343,-1.253 -0.401,-1.837c-0.013,-0.132 0.026,-0.258 0.102,-0.356c-0.006,-0.03 -0.009,-0.06 -0.009,-0.092c0,-1.117 0.245,-2.057 0.629,-2.65c0.326,-0.504 0.757,-0.784 1.233,-0.825c0.317,-0.027 0.665,0.052 1.029,0.281c0.431,0.272 0.908,0.779 1.385,1.595c0.277,0.473 0.523,0.963 0.74,1.466c6.563,-4.787 14.714,-9.048 22.021,-12.482c0.014,-0.007 0.028,-0.013 0.042,-0.018Zm-50.797,17.685c0.388,0.628 0.744,1.365 1.201,1.97c0.489,0.647 1.11,1.13 2.119,0.98c0.17,-0.025 0.3,-0.078 0.392,-0.166c0.147,-0.142 0.189,-0.353 0.2,-0.58c0.037,-0.806 -0.399,-1.813 -0.595,-2.146c-0.422,-0.721 -0.908,-1.548 -1.502,-2.262c-0.55,-0.66 -1.193,-1.225 -1.981,-1.474c-0.308,-0.097 -0.556,-0.139 -0.754,-0.122c-0.109,0.01 -0.195,0.035 -0.253,0.094c-0.064,0.064 -0.092,0.156 -0.11,0.259c-0.029,0.167 -0.021,0.358 0.008,0.563c0.135,0.949 0.726,2.133 1.157,2.626c0.066,0.075 0.105,0.165 0.118,0.258Zm24.614,-4.746c0.002,0.014 0.004,0.028 0.006,0.042c0.216,2.152 1.664,4.846 2.973,6.552c0.207,0.271 0.393,0.459 0.565,0.573c0.089,0.059 0.163,0.098 0.234,0.091c0.059,-0.006 0.1,-0.054 0.143,-0.106c0.063,-0.076 0.116,-0.172 0.164,-0.281c0.226,-0.515 0.307,-1.268 0.27,-1.902c-0.13,-2.213 -0.713,-4.447 -1.838,-6.369c-0.314,-0.537 -0.617,-0.914 -0.908,-1.148c-0.203,-0.163 -0.386,-0.251 -0.559,-0.236c-0.264,0.022 -0.449,0.269 -0.605,0.603c-0.221,0.473 -0.341,1.126 -0.341,1.875c0,0.115 -0.039,0.221 -0.104,0.306Zm13.633,5.08c-0.048,-0.537 -0.091,-1.145 -0.2,-1.731c-0.113,-0.604 -0.289,-1.187 -0.651,-1.614c-0.555,-0.657 -1.567,-0.484 -1.866,0.302c-0.324,0.852 -0.239,1.835 -0.069,2.819c0.134,0.775 0.324,1.552 0.457,2.278c0.789,-0.652 1.566,-1.336 2.329,-2.054Zm-49.961,-4.829c-0.299,1.059 -0.535,2.126 -0.763,3.199c0.034,0.004 0.069,0.012 0.103,0.023c0.843,0.281 1.405,1.026 1.996,1.756c0.447,0.553 0.916,1.102 1.716,1.186c0.098,0.01 0.175,0.006 0.232,-0.034c0.109,-0.075 0.138,-0.223 0.162,-0.377c0.067,-0.43 -0.024,-0.951 -0.111,-1.265c-0.172,-0.612 -0.635,-1.318 -1.185,-2.029c-0.681,-0.879 -1.5,-1.755 -2.15,-2.459Zm17.963,0.227c0.879,1.757 2.039,3.452 3.898,4.297c0.741,0.337 1.462,0.428 2.024,0.309c0.451,-0.096 0.812,-0.322 1.049,-0.657c0.353,-0.497 0.453,-1.291 -0.031,-2.371c-0.839,-1.872 -2.98,-3.606 -4.653,-4.721c-0.897,-0.598 -1.665,-0.579 -2.154,-0.251c-0.321,0.216 -0.555,0.578 -0.634,1.074c-0.093,0.582 0.034,1.386 0.501,2.32l-0,-0Zm0.894,-0.447c-0.294,-0.59 -0.431,-1.106 -0.424,-1.517c0.004,-0.275 0.062,-0.493 0.221,-0.6c0.089,-0.059 0.204,-0.071 0.336,-0.053c0.21,0.03 0.446,0.133 0.705,0.306c1.534,1.022 3.526,2.582 4.295,4.298c0.284,0.633 0.335,1.093 0.128,1.384c-0.129,0.182 -0.356,0.263 -0.621,0.282c-0.361,0.026 -0.785,-0.067 -1.223,-0.266c-1.645,-0.748 -2.639,-2.279 -3.417,-3.834l0,-0Zm-28.344,-0.165c-0.173,0.116 -0.328,0.254 -0.441,0.403c-0.085,0.111 -0.161,0.22 -0.131,0.333c0.043,0.158 0.233,0.254 0.545,0.363c0.983,0.344 2.538,0.122 3.475,-0.279c0.286,-0.123 0.447,-0.307 0.47,-0.522c0.037,-0.354 -0.246,-0.713 -0.673,-0.866c-0.978,-0.352 -1.952,0.128 -2.815,0.56c-0.14,0.07 -0.297,0.068 -0.43,0.008Zm17.114,-9.132c0.074,0.649 0.434,1.358 0.977,2.012c0.856,1.03 2.155,1.929 3.281,2.256c0.734,0.213 1.405,0.182 1.895,-0.115c0.504,-0.305 0.869,-0.896 0.869,-1.912c-0,-2.004 -1.622,-3.889 -3.384,-4.682c-1.651,-0.743 -3.684,0.015 -3.898,1.946c-0.023,0.208 0.086,0.401 0.26,0.495Zm0.784,-0.646c0.122,0.091 0.201,0.237 0.201,0.401c0,0.517 0.317,1.084 0.761,1.618c0.73,0.878 1.83,1.656 2.791,1.935c0.425,0.123 0.815,0.161 1.098,-0.01c0.27,-0.164 0.387,-0.513 0.387,-1.057c-0,-1.628 -1.363,-3.126 -2.795,-3.77c-0.961,-0.433 -2.161,-0.126 -2.443,0.883Zm33.784,-2.68c-0.753,0.199 -1.491,0.424 -2.211,0.678c-0.067,0.024 -0.133,0.047 -0.2,0.071c0.2,0.271 0.389,0.591 0.567,0.939c0.318,0.622 0.622,1.325 0.974,1.878c0.19,0.299 0.387,0.554 0.625,0.69c0.41,0.236 0.729,0.297 0.97,0.165c0.174,-0.095 0.29,-0.277 0.373,-0.492c0.108,-0.28 0.153,-0.616 0.144,-0.966c-0.029,-1.102 -0.632,-2.065 -1.242,-2.963Zm-46.733,2.279c1.219,-0.812 2.51,-1.496 4.001,-1.148c0.228,0.053 0.519,0.132 0.761,0.271c0.149,0.085 0.291,0.186 0.315,0.357c0.096,0.67 -0.447,0.974 -1.111,1.146c-1.303,0.339 -3.149,0.126 -3.805,-0.12c-0.024,-0.009 -0.048,-0.016 -0.073,-0.021c-0.12,-0.025 -0.256,-0.109 -0.268,-0.234c-0.008,-0.085 0.061,-0.159 0.173,-0.246l0.007,-0.005Zm25.955,-5.952c0.096,0.091 0.156,0.22 0.156,0.362c0,0.509 0.311,1.084 0.745,1.632c0.706,0.892 1.766,1.699 2.676,1.981c0.375,0.117 0.717,0.16 0.956,-0.014c0.252,-0.185 0.336,-0.57 0.305,-1.177c-0.041,-0.833 -0.556,-1.527 -1.199,-2.121c-0.717,-0.663 -1.604,-1.198 -2.322,-1.63c-0.411,-0.246 -0.774,-0.328 -1.03,-0.171c-0.25,0.153 -0.327,0.502 -0.276,0.966c0.007,0.059 0.003,0.117 -0.011,0.172Zm41.588,3.414c0.002,0.002 0.005,0.004 0.007,0.007l0.003,-0.005l-0.01,-0.002Zm-70.583,-4.969c-0.133,-0.004 -0.266,0.045 -0.367,0.146c-0.085,0.085 -0.133,0.192 -0.144,0.302c-0.217,0.18 -0.418,0.397 -0.557,0.626c-0.187,0.31 -0.266,0.641 -0.209,0.944c0.06,0.317 0.258,0.633 0.717,0.863c0.811,0.406 2.818,0.617 4.322,0.209c1.151,-0.312 1.991,-0.986 2.05,-2.041c0.054,-0.982 -0.575,-1.524 -1.489,-1.745c-1.085,-0.262 -2.598,-0.023 -3.231,0.203c-0.068,0.024 -0.429,0.207 -0.759,0.358c-0.112,0.051 -0.265,0.11 -0.333,0.135Zm0.812,0.744c-0.059,0.098 -0.152,0.176 -0.269,0.215c-0.245,0.081 -0.58,0.344 -0.756,0.634c-0.049,0.081 -0.096,0.16 -0.081,0.24c0.013,0.067 0.084,0.105 0.181,0.154c0.678,0.339 2.357,0.479 3.613,0.138c0.69,-0.187 1.278,-0.499 1.313,-1.131c0.024,-0.437 -0.318,-0.62 -0.725,-0.718c-0.893,-0.216 -2.138,-0.014 -2.66,0.173c-0.057,0.02 -0.337,0.165 -0.616,0.295Zm-0.713,-0.731c0.022,0.005 0.044,0.012 0.066,0.02l0.004,-0.002c-0.021,-0.008 -0.045,-0.014 -0.07,-0.018Zm5.443,-7.097c0.035,0.038 0.095,0.098 0.143,0.132c0.285,0.202 0.679,0.345 0.866,0.41c0.742,0.258 2.407,0.46 3.621,0.101c0.653,-0.193 1.179,-0.556 1.179,-1.271c0,-0.118 -0.096,-0.175 -0.193,-0.219c-0.204,-0.094 -0.457,-0.118 -0.653,-0.11c-0.874,0.035 -2.014,-0.007 -3.054,0.135c-0.309,0.043 -0.608,0.1 -0.886,0.183l-0.285,0.098c-0.153,0.076 -0.394,0.205 -0.544,0.33c-0.069,0.058 -0.151,0.157 -0.194,0.211Z"/>
</g>
</svg>