<?xml version="1.0" ?>
<!DOCTYPE svg  PUBLIC '-//W3C//DTD SVG 1.1//EN'  'http://www.w3.org/Graphics/SVG/1.1/DTD/svg11.dtd'>
<!-- Uploaded to: SVG Repo, www.svgrepo.com, Generator: SVG Repo Mixer Tools -->
<svg fill="#000000" width="800px" height="800px" viewBox="0 0 100 100" style="fill-rule:evenodd;clip-rule:evenodd;stroke-linejoin:round;stroke-miterlimit:2;" version="1.1" xml:space="preserve" xmlns="http://www.w3.org/2000/svg" xmlns:serif="http://www.serif.com/" xmlns:xlink="http://www.w3.org/1999/xlink">
<g id="Icon">
<path d="M41.291,29.595c-5.803,-7.318 -14.208,-11.987 -21.247,-16.385c-0.468,-0.292 -1.085,-0.15 -1.378,0.318c-0.096,0.155 -0.145,0.326 -0.151,0.496c-0.076,0.16 -0.11,0.343 -0.089,0.532c0.247,2.287 0.615,4.537 0.577,6.832c-0.081,4.978 -2.479,9.686 -4.577,14.067c-1.355,2.832 -3.232,5.747 -4.719,8.782c-1.567,3.195 -2.699,6.523 -2.485,10.007c0.437,7.145 8.669,11.401 14.965,9.333c3.219,-1.058 5.186,-2.579 7.849,-6.6c0.408,2.963 0.936,5.878 1.086,8.901c0.377,7.571 -0.472,15.677 -1.884,23.103c-0.103,0.543 0.253,1.067 0.795,1.17c0.543,0.103 1.066,-0.254 1.17,-0.796c1.44,-7.578 2.302,-15.85 1.917,-23.576c-0.128,-2.571 -0.524,-5.065 -0.891,-7.575c1.426,1.062 3.172,1.605 5.08,1.783c3.582,0.335 7.762,-0.674 11.231,-1.75c-3.292,4.188 -6.102,9.028 -8.015,13.862c-2.163,5.467 -3.46,11.32 -6.513,16.393c-0.285,0.473 -0.132,1.088 0.341,1.373c0.473,0.284 1.088,0.131 1.373,-0.341c3.11,-5.168 4.455,-11.12 6.659,-16.689c2.07,-5.23 5.228,-10.467 8.912,-14.814c2.532,3.361 5.993,6.676 10.046,7.882c1.653,0.492 3.329,0.53 4.939,0.209c-5.413,5.765 -18.385,16.26 -24.472,20.405c-0.456,0.31 -0.574,0.933 -0.263,1.389c0.31,0.456 0.933,0.574 1.389,0.264c6.325,-4.307 19.974,-15.381 25.209,-21.127c1.356,4.328 4.821,6.876 8.413,7.102c1.989,0.125 3.89,-0.371 5.761,-0.999c4.154,-1.392 7.18,-5.669 8.798,-9.732c5.374,-13.494 -1.228,-27.353 -4.261,-35.542c-0.829,-2.24 -1.237,-5.008 -2.506,-7.035c-0.129,-0.206 -0.321,-0.349 -0.536,-0.419c-0.04,-0.027 -0.082,-0.051 -0.127,-0.072c-0.499,-0.235 -1.096,-0.02 -1.331,0.479c-0.98,2.081 -1.837,4.193 -3.064,6.133c-1.644,2.599 -4.217,4.791 -6.788,6.644c-1.93,-7.782 -4.169,-15.505 -7.436,-22.827c-0.154,-0.344 -0.478,-0.559 -0.829,-0.589c-0.356,-0.151 -0.784,-0.087 -1.082,0.197c-3.834,3.658 -7.242,7.918 -11.371,11.217c-3.299,2.635 -7.006,5.201 -10.495,7.995Zm33.136,30.117c-1.116,1.767 -2.672,3.309 -4.47,4.401c0,0.256 -0.098,0.506 -0.277,0.693c0.664,4.413 3.714,7.136 7.004,7.343c0.903,0.057 1.783,-0.042 2.65,-0.228c-0.113,-0.074 -0.196,-0.195 -0.219,-0.339c-0.615,-3.869 -2.454,-8.52 -4.688,-11.87Zm4.54,-10.803c-1.04,3.144 -2.276,6.322 -3.74,9.381c-0.021,0.044 -0.047,0.082 -0.077,0.117c-0.055,0.114 -0.112,0.228 -0.17,0.341c2.433,3.486 4.462,8.518 5.122,12.677c0.019,0.117 -0.005,0.231 -0.059,0.326c0.55,-0.146 1.096,-0.319 1.64,-0.501c3.076,-1.031 5.372,-3.938 6.858,-6.961c-1.746,-5.4 -5.075,-11.987 -9.574,-15.38Zm-22.659,-0.251c-1.229,2.464 -2.58,4.852 -4.04,7.141c0.073,0.112 0.122,0.236 0.146,0.364c2.321,3.252 5.58,6.657 9.5,7.823c2.134,0.635 4.313,0.319 6.251,-0.595c0.01,-0.006 0.021,-0.011 0.032,-0.016c0.102,-0.048 0.202,-0.098 0.302,-0.149c0.318,-0.164 0.682,-0.14 0.969,0.029c0.273,-0.167 0.54,-0.345 0.8,-0.533c0.98,-0.709 1.862,-1.565 2.603,-2.518c-3.5,-5.651 -10.458,-9.404 -16.513,-11.525c-0.017,-0.006 -0.034,-0.013 -0.05,-0.021Zm25.671,-10.944c-0.682,3.196 -1.563,6.664 -2.687,10.192c4.501,3.241 7.929,9.574 9.853,15.047l0.004,-0.009c0.166,-0.402 0.321,-0.809 0.467,-1.22c0.508,-1.432 0.891,-2.909 1.15,-4.407c0.157,-0.913 0.269,-1.834 0.336,-2.758c0.041,-0.549 0.066,-1.099 0.076,-1.65l0.001,-0.027c-3.276,-10.04 -6.509,-12.012 -9.2,-15.168Zm-53.025,4.923c-4.23,6.277 -9.794,13.742 -16.734,17.157c2.538,2.086 6.239,2.902 9.343,1.883c3.316,-1.09 5.058,-2.819 8.078,-7.826c0.025,-0.041 0.052,-0.08 0.082,-0.117c-0.156,-0.472 -0.288,-0.979 -0.392,-1.523c-0.323,-1.683 -0.318,-3.399 -0.132,-5.095c0.023,-0.21 0.052,-0.422 0.087,-0.634c-0.085,-1.252 -0.195,-2.539 -0.332,-3.845Zm32.179,-6.001c-1.181,3.817 -2.654,7.546 -4.382,11.121c6.113,2.15 13.076,5.944 16.746,11.567c0.798,-1.232 1.364,-2.588 1.615,-3.976c0.462,-2.545 -0.085,-5.374 -0.786,-8.102c-0.063,-0.031 -0.12,-0.077 -0.166,-0.136c-3.321,-4.226 -8.699,-7.319 -13.027,-10.474Zm-34.497,-6.784c-1.487,3.224 -3.968,6.084 -6.347,8.602c-3.073,3.252 -5.843,6.416 -9.691,8.659c-0.929,2.259 -1.528,4.588 -1.38,7.008c0.12,1.955 0.958,3.635 2.213,4.943c7.323,-3.423 13.066,-11.534 17.349,-17.965c-0.453,-3.75 -1.14,-7.613 -2.144,-11.247Zm28.293,19.315c-2.08,-0.596 -4.962,-0.969 -7.041,-1.03c-6.219,-0.183 -12.29,0.595 -17.401,4.367c-0.02,0.015 -0.041,0.028 -0.062,0.039c0.069,0.292 0.147,0.571 0.234,0.838c0.122,0.02 0.242,0.063 0.354,0.13c0.09,0.055 0.169,0.121 0.235,0.196l0.005,0.006c0.066,0.076 0.121,0.162 0.162,0.259c0.024,0.055 0.049,0.11 0.073,0.164c0.141,0.143 0.24,0.328 0.275,0.538c1.236,2.186 3.337,3.098 5.732,3.322c4.374,0.408 9.684,-1.368 13.264,-2.593c0.075,-0.026 0.151,-0.042 0.227,-0.049c0.133,-0.043 0.272,-0.057 0.407,-0.043l0.022,-0.034c0.624,-0.978 1.225,-1.969 1.803,-2.974c0.59,-1.024 1.156,-2.062 1.699,-3.112l0.012,-0.024Zm26.004,-11.328c-2.333,0.888 -4.452,2.391 -6.56,3.699c-0.153,0.095 -0.337,0.097 -0.488,0.022l0.042,0.179c0.064,0.278 0.128,0.556 0.195,0.833c0.083,0.345 0.17,0.69 0.259,1.033c0.168,0.648 0.344,1.294 0.517,1.94c0.202,0.754 0.4,1.51 0.582,2.269c0.222,0.929 0.42,1.865 0.565,2.809c0.139,0.909 0.227,1.826 0.231,2.746l-0,0.022c2.111,-5.298 3.611,-10.727 4.657,-15.552Zm-20.811,-1.315c-2.844,-0.992 -5.866,-1.165 -8.852,-1.275c-5.252,-0.193 -10.668,0.066 -15.695,1.715c-0.016,0.006 -0.032,0.01 -0.049,0.014c-1.238,1.403 -2.354,2.887 -3.296,4.479c-0.892,1.506 -1.63,3.315 -1.939,5.077c0.002,0.064 -0.009,0.126 -0.03,0.184c-0.027,0.169 -0.05,0.338 -0.068,0.507c-0.154,1.41 -0.18,2.834 0.026,4.239c5.228,-3.707 11.385,-4.512 17.698,-4.327c2.215,0.065 5.307,0.475 7.473,1.123l0.002,-0.005c1.003,-2.008 1.922,-4.059 2.751,-6.145c0.724,-1.824 1.38,-3.674 1.967,-5.547l0.012,-0.039Zm23.823,-11.425c-0.073,0.814 -0.16,1.626 -0.258,2.437c-0.101,0.844 -0.213,1.686 -0.335,2.527c-0.308,2.124 -0.677,4.24 -1.101,6.344l-0.01,0.048c2.559,3.28 5.645,4.879 8.831,13.132c-0.667,-8.267 -4.167,-15.826 -6.091,-21.02c-0.403,-1.087 -0.688,-2.309 -1.033,-3.501l-0.003,0.033Zm-63.235,-8.219c0.174,1.509 0.318,3.015 0.293,4.54c-0.086,5.265 -2.555,10.265 -4.773,14.899c-1.357,2.837 -3.237,5.758 -4.727,8.798c-0.058,0.119 -0.116,0.237 -0.173,0.356c3.143,-2.119 5.566,-4.884 8.232,-7.705c2.577,-2.728 5.296,-5.858 6.629,-9.445c-0.416,-1.351 -0.878,-2.663 -1.392,-3.916c-1.069,-2.604 -2.611,-5.096 -4.089,-7.527Zm42.936,8.884c-0.509,3.318 -1.252,6.617 -2.207,9.857c3.961,2.924 8.854,5.787 12.313,9.483c-0.248,-0.91 -0.488,-1.796 -0.684,-2.643c-0.482,-2.077 -0.966,-4.159 -1.468,-6.241c-0.025,-0.007 -0.049,-0.016 -0.073,-0.025l-0.003,-0.001c-0.151,-0.057 -0.288,-0.152 -0.399,-0.279c-0.063,-0.073 -0.116,-0.156 -0.156,-0.246c-0.028,-0.062 -0.048,-0.125 -0.063,-0.189c-0.341,-1.403 -0.691,-2.805 -1.055,-4.204c-1.464,-2.445 -3.431,-4.059 -6.205,-5.512Zm-24.581,4.267c-3.631,-0.571 -7.67,0.104 -11.295,0.189c0.916,3.464 1.557,7.111 1.99,10.66c0.086,0.13 0.108,0.296 0.054,0.445c0.092,0.787 0.174,1.569 0.247,2.342c0.364,-0.959 0.813,-1.883 1.308,-2.72c2.185,-3.69 5.284,-6.821 8.687,-9.683c-0.322,-0.42 -0.653,-0.831 -0.991,-1.233Zm43.955,-5.868c-0.614,1.323 -1.255,2.626 -2.038,3.864c-2.01,3.178 -5.287,5.818 -8.407,7.971c0.386,1.604 0.763,3.209 1.136,4.813c0.036,-0.048 0.081,-0.089 0.135,-0.122c2.339,-1.453 4.701,-3.125 7.33,-3.998l0.014,-0.067c0.483,-2.354 0.897,-4.722 1.232,-7.101c0.134,-0.95 0.256,-1.901 0.362,-2.854c0.092,-0.829 0.173,-1.66 0.235,-2.492l0.001,-0.014Zm-20.23,0.553c-4.376,-0.932 -8.844,-0.096 -13.095,1.016c-2.618,1.961 -5.35,3.937 -7.933,6.055c-0.007,0.006 -0.015,0.012 -0.022,0.018c-0.076,0.06 -0.158,0.107 -0.243,0.141l-0.021,0.008c-0.151,0.057 -0.312,0.075 -0.468,0.057l-0.011,-0.002c-0.078,-0.009 -0.155,-0.029 -0.229,-0.057c-1.363,1.144 -2.677,2.332 -3.9,3.584c4.676,-1.26 9.625,-1.464 14.439,-1.286c3.073,0.113 6.18,0.303 9.107,1.316l0.004,-0.015c0.542,-1.82 1.017,-3.66 1.421,-5.517c0.382,-1.759 0.7,-3.533 0.951,-5.317l0,-0.001Zm-41.092,-8.136c1.462,2.407 2.97,4.874 4.026,7.448c0.54,1.315 1.024,2.694 1.457,4.116c0.012,0.03 0.022,0.061 0.028,0.093c0.099,0.327 0.196,0.657 0.289,0.988c3.369,-0.05 7.112,-0.631 10.579,-0.319c-4.743,-5.185 -10.821,-8.916 -16.379,-12.326Zm42.744,-2.159c0.026,1.682 -0.014,3.364 -0.117,5.042c-0.108,1.751 -0.284,3.497 -0.523,5.235l-0.003,0.019c2.209,1.125 3.946,2.331 5.343,3.897c-1.318,-4.819 -2.824,-9.582 -4.7,-14.204l-0,0.011Zm-1.042,-1.479c-3.428,3.426 -6.604,7.215 -10.366,10.221c-0.441,0.352 -0.889,0.703 -1.342,1.053c3.687,-0.827 7.491,-1.273 11.231,-0.494c0.452,-3.597 0.621,-7.207 0.477,-10.78Z"/>
</g>
</svg>