<?xml version="1.0" ?><!DOCTYPE svg  PUBLIC '-//W3C//DTD SVG 1.1//EN'  'http://www.w3.org/Graphics/SVG/1.1/DTD/svg11.dtd'><!-- Uploaded to: SVG Repo, www.svgrepo.com, Generator: SVG Repo Mixer Tools -->
<svg fill="#000000" width="800px" height="800px" viewBox="0 0 64 64" enable-background="new 0 0 64 64" id="Layer_1" version="1.1" xml:space="preserve" xmlns="http://www.w3.org/2000/svg" xmlns:xlink="http://www.w3.org/1999/xlink"><path d="M29.387,38.924c-0.663,0-1.854-0.28-2.376-2.155c-0.472-1.69-0.484-3.678-0.454-5.027c0.007-0.282,0.008-0.58,0.01-0.886  c0.011-2.302,0.026-5.78,2.851-5.78c0.521,0,1.084,0.136,1.721,0.415c1.897,0.833,3.967,2.29,5.399,3.804  c0.652,0.689,0.959,1.461,0.911,2.293c-0.103,1.785-1.809,3.217-3.179,4.367l-0.732,0.626C32.404,37.57,30.853,38.924,29.387,38.924  z M29.417,27.076c-0.833,0-0.844,2.28-0.851,3.789c-0.002,0.319-0.003,0.629-0.01,0.922c-0.028,1.221-0.02,3.011,0.38,4.444  c0.089,0.316,0.238,0.692,0.45,0.692c0.716,0,2.095-1.203,2.836-1.85l0.761-0.651c0.962-0.807,2.415-2.027,2.468-2.95  c0.01-0.168-0.018-0.435-0.367-0.804c-1.241-1.312-3.105-2.626-4.749-3.346C29.869,27.119,29.579,27.076,29.417,27.076z"/><path d="M40.79,48.006L38.044,48c-4.211-0.012-11.639-0.031-14.904,0.005h-0.001c-3.715,0-7.569-2.149-7.581-6.133  c-0.012-4.058-0.101-7.422-0.194-10.982c-0.041-1.559-0.083-3.172-0.122-4.924c-0.136-6.167,2.158-9.435,6.819-9.711  c2.673-0.159,7.138-0.262,11.374-0.262c3.557,0,9.753,0.072,11.286,0.553c2.223,0.698,3.522,2.49,3.864,5.328  c0.313,2.599,0.14,11.879,0.046,16.864c-0.026,1.407-0.046,2.458-0.046,2.892C48.585,45.444,45.452,48.006,40.79,48.006z   M29.098,45.985c3.12,0,6.557,0.009,8.952,0.015l2.74,0.006c3.521,0,5.795-1.717,5.795-4.375c0-0.438,0.02-1.503,0.046-2.93  c0.087-4.585,0.266-14.126-0.032-16.587c-0.322-2.684-1.568-3.374-2.478-3.659c-0.678-0.213-3.883-0.461-10.687-0.461  c-4.2,0-8.619,0.101-11.255,0.258c-3.528,0.209-5.052,2.575-4.938,7.671c0.038,1.749,0.081,3.36,0.122,4.916  c0.094,3.573,0.183,6.948,0.194,11.029c0.009,3.037,3.288,4.139,5.489,4.139C24.532,45.991,26.724,45.985,29.098,45.985z"/></svg>