<?xml version="1.0" ?>
<!DOCTYPE svg  PUBLIC '-//W3C//DTD SVG 1.1//EN'  'http://www.w3.org/Graphics/SVG/1.1/DTD/svg11.dtd'>
<!-- Uploaded to: SVG Repo, www.svgrepo.com, Generator: SVG Repo Mixer Tools -->
<svg fill="#000000" width="800px" height="800px" viewBox="0 0 64 64" enable-background="new 0 0 64 64" id="Layer_1" version="1.1" xml:space="preserve" xmlns="http://www.w3.org/2000/svg" xmlns:xlink="http://www.w3.org/1999/xlink">
<g>
<path d="M46.062,23.665c-0.007,0-0.014,0-0.02,0c-6.546-0.13-21.546-0.09-28.076,0c-0.534-0.001-1.006-0.434-1.014-0.986   s0.434-1.006,0.986-1.014c6.545-0.088,21.578-0.129,28.142,0c0.552,0.011,0.991,0.468,0.98,1.02   C47.051,23.23,46.605,23.665,46.062,23.665z"/>
</g>
<g>
<path d="M46.062,29.017c-0.007,0-0.014,0-0.02,0c-6.546-0.129-21.546-0.09-28.076,0c-0.005,0-0.009,0-0.014,0   c-0.546,0-0.992-0.438-1-0.986c-0.007-0.553,0.434-1.006,0.986-1.014c6.545-0.087,21.578-0.128,28.142,0   c0.552,0.011,0.991,0.468,0.98,1.02C47.051,28.582,46.605,29.017,46.062,29.017z"/>
</g>
<g>
<path d="M25.871,23.425c-0.185,0-0.371-0.051-0.538-0.158c-1.263-0.809-2.559-1.718-3.306-3.146   c-0.643-1.23-0.984-3.099-0.019-4.657c0.895-1.442,2.51-2.03,4.328-1.568c1.499,0.382,2.954,1.458,4.325,3.199   c1.088,1.383,1.81,2.926,2.373,4.253l0.203,0.482c0.211,0.51-0.032,1.095-0.542,1.306c-0.511,0.21-1.095-0.031-1.307-0.542   l-0.194-0.462c-0.513-1.208-1.163-2.603-2.105-3.8c-1.093-1.388-2.185-2.228-3.247-2.498c-0.552-0.139-1.564-0.238-2.135,0.684   c-0.524,0.845-0.278,1.97,0.091,2.677c0.521,0.994,1.532,1.697,2.612,2.389c0.465,0.298,0.601,0.916,0.303,1.381   C26.523,23.262,26.201,23.425,25.871,23.425z"/>
</g>
<g>
<path d="M38.45,23.425c-0.33,0-0.652-0.162-0.843-0.461c-0.298-0.465-0.162-1.083,0.303-1.381c1.08-0.692,2.092-1.396,2.612-2.389   c0.37-0.707,0.615-1.832,0.091-2.678c-0.57-0.918-1.583-0.823-2.136-0.682c-1.062,0.27-2.154,1.109-3.246,2.497   c-0.941,1.195-1.591,2.59-2.104,3.797l-0.195,0.465c-0.211,0.511-0.797,0.752-1.307,0.542c-0.51-0.211-0.753-0.796-0.542-1.306   l0.203-0.483c0.564-1.328,1.287-2.872,2.374-4.251c1.371-1.742,2.826-2.818,4.325-3.199c1.816-0.46,3.434,0.124,4.329,1.566   c0.808,1.305,0.801,3.09-0.019,4.658c-0.746,1.427-2.042,2.337-3.305,3.146C38.822,23.374,38.635,23.425,38.45,23.425z"/>
</g>
<g>
<path d="M31.182,50.247c-4.878,0-9.775-0.32-11.175-1.432c-1.759-1.397-1.909-4.161-1.891-5.284   c0.066-4.304,0.111-7.954,0.158-11.768l0.043-3.481c0.007-0.548,0.453-0.987,1-0.987c0.004,0,0.009,0,0.013,0   c0.552,0.007,0.994,0.46,0.987,1.013l-0.043,3.48c-0.047,3.815-0.092,7.468-0.158,11.774c-0.02,1.27,0.266,2.996,1.135,3.687   c2.044,1.623,19.016,0.911,20.849,0.512c0.41-0.09,1.66-0.363,1.743-3.918c0.101-4.384,0.045-11.143,0.022-14.028l-0.008-1.021   c-0.004-0.553,0.441-1.003,0.993-1.007c0.002,0,0.005,0,0.007,0c0.549,0,0.996,0.443,1,0.993l0.008,1.018   c0.024,2.896,0.08,9.676-0.022,14.092c-0.079,3.401-1.194,5.361-3.315,5.824C41.843,49.863,36.523,50.247,31.182,50.247z"/>
</g>
<g>
<path d="M17.953,29.017c-0.552,0-1-0.447-1-1c0-1.434,0-3.92-0.03-5.414c-0.011-0.552,0.428-1.009,0.98-1.02   c0.55,0.021,1.009,0.428,1.02,0.98c0.03,1.504,0.03,4.01,0.03,5.453C18.953,28.569,18.505,29.017,17.953,29.017z"/>
</g>
<g>
<path d="M46.077,29.098c-0.552,0-1-0.447-1-1c0-1.434,0-3.92-0.03-5.413c-0.011-0.552,0.428-1.009,0.98-1.02   c0.545,0.019,1.009,0.428,1.02,0.98c0.03,1.503,0.03,4.009,0.03,5.452C47.077,28.65,46.629,29.098,46.077,29.098z"/>
</g>
<g>
<path d="M31.848,50.241c-0.006,0-0.012,0-0.018,0c-0.552-0.01-0.992-0.465-0.982-1.018c0.16-9.106,0.16-14.752,0.16-21.288   c0-0.553,0.448-1,1-1s1,0.447,1,1c0,6.546,0,12.199-0.16,21.323C32.838,49.805,32.392,50.241,31.848,50.241z"/>
</g>
<g>
<path d="M44.901,38.941c-0.006,0-0.012,0-0.018,0c-9.106-0.159-19.083-0.159-25.685-0.159c-0.552,0-1-0.447-1-1s0.448-1,1-1   c6.609,0,16.596,0,25.72,0.159c0.552,0.01,0.992,0.465,0.982,1.018C45.891,38.505,45.445,38.941,44.901,38.941z"/>
</g>
</svg>