<?xml version="1.0" ?>
<!DOCTYPE svg  PUBLIC '-//W3C//DTD SVG 1.1//EN'  'http://www.w3.org/Graphics/SVG/1.1/DTD/svg11.dtd'>
<!-- Uploaded to: SVG Repo, www.svgrepo.com, Generator: SVG Repo Mixer Tools -->
<svg fill="#000000" width="800px" height="800px" viewBox="0 0 100 100" style="fill-rule:evenodd;clip-rule:evenodd;stroke-linejoin:round;stroke-miterlimit:2;" version="1.1" xml:space="preserve" xmlns="http://www.w3.org/2000/svg" xmlns:serif="http://www.serif.com/" xmlns:xlink="http://www.w3.org/1999/xlink">
<g id="Icon">
<path d="M62.07,11.913c-0.183,0.713 -0.53,1.343 -0.98,2c-0.089,0.13 -0.342,0.55 -0.404,0.653c-0.551,-0.008 -1.238,-0.252 -1.858,-0.261c-0.756,-0.012 -1.437,0.21 -1.952,0.863c-0.319,0.404 -0.49,0.922 -0.543,1.485c-0.057,0.609 0.03,1.277 0.085,1.784c0.163,1.506 0.497,2.952 0.975,4.388c0.124,0.369 0.343,0.819 0.534,1.274c0.125,0.296 0.254,0.59 0.254,0.846c-0,0.181 0.047,0.35 0.131,0.497c-0.435,2.047 -0.94,4.257 -1.564,6.397c-0.186,-1.568 -0.391,-3.134 -0.642,-4.67c-0.264,-1.614 -0.61,-3.531 -1.633,-4.873c-0.561,-0.737 -1.381,-0.986 -2.225,-0.564c-0.263,0.132 -0.502,0.304 -0.742,0.472c-0.151,0.106 -0.289,0.237 -0.489,0.25c-0.206,0.014 -0.659,-0.113 -1.172,-0.204c-0.726,-0.13 -1.532,-0.223 -2.138,-0.133c-0.953,0.142 -1.553,0.654 -1.652,1.552c-0.051,0.454 0.074,0.985 0.314,1.51c0.237,0.52 0.592,1.044 0.77,1.424c1.141,2.423 2.765,4.623 4.238,6.847c0.749,1.132 1.464,2.284 2.19,3.429c0.036,0.057 0.509,0.695 0.865,1.024c-1.251,2.496 -2.727,4.927 -4.261,7.329c0.5,-2.436 0.726,-5.211 0.211,-7.503l0.039,-0.023c0.38,-0.229 0.697,-0.517 0.883,-0.914c0.301,-0.646 0.317,-1.222 0.175,-1.716c-0.293,-1.021 -1.402,-1.769 -2.661,-1.94c-1.887,-0.255 -3.744,0.737 -3.433,2.728c0.077,0.493 0.227,0.945 0.455,1.387c0.364,0.709 0.871,1.117 1.64,1.35c0.374,0.113 0.718,0.125 1.055,0.094c0.43,2.577 -0.118,5.709 -0.798,8.064c-0.22,0.763 -0.673,1.653 -0.997,2.532c-0.102,0.278 -0.192,0.554 -0.264,0.827c-0.842,-3.479 -1.395,-7.214 -1.6,-10.689c-0.072,-1.225 0.046,-2.612 -0.001,-3.967c-0.054,-1.552 -0.325,-3.058 -1.161,-4.311c-0.332,-0.499 -0.717,-0.688 -1.075,-0.751c-0.34,-0.061 -0.693,0.001 -1.04,0.18c-0.263,0.136 -0.532,0.358 -0.782,0.564c-1.088,0.9 -1.923,2.197 -3.149,2.925c-0.548,0.325 -1.206,0.434 -1.874,0.51c-0.84,0.097 -1.698,0.133 -2.462,0.286c-1.208,0.242 -2.376,0.679 -2.376,2.225c-0,2.147 1.438,4.42 2.487,6.173c1.961,3.281 4.131,6.216 6.558,9.163c0.557,0.677 1.499,2.331 2.526,3.268c0.227,0.208 0.461,0.383 0.698,0.522c-0.761,1.274 -1.533,2.598 -2.272,3.959c-2.238,-1.443 -4.226,-3.145 -5.75,-5.367c-0.931,-1.358 -1.762,-2.78 -2.751,-4.099c-0.523,-0.697 -1.121,-1.578 -1.904,-2.019c-0.554,-0.311 -1.051,-0.4 -1.494,-0.365c-0.658,0.053 -1.229,0.392 -1.714,0.913c-0.524,0.562 -0.938,1.378 -1.361,1.906c-0.059,0.074 -0.16,0.047 -0.248,0.062c-0.239,0.039 -0.487,0.063 -0.72,0.115c-0.661,0.147 -1.233,0.46 -1.569,1.265c-0.128,0.308 -0.181,0.649 -0.216,0.979c-0.036,0.339 -0.022,0.677 0.007,1.017c0.035,0.411 0.11,0.812 0.219,1.21c0.533,1.941 2.144,3.605 3.594,4.91c3.23,2.907 7.075,4.51 11.378,4.695c-1.205,2.902 -2.062,5.885 -2.218,8.833c-0.097,-0.108 -0.181,-0.202 -0.231,-0.26c-0.987,-1.136 -1.534,-2.458 -1.777,-3.904c0.561,-0.379 1.091,-0.906 1.369,-1.477c0.392,-0.806 0.391,-1.684 -0.33,-2.489c-0.209,-0.232 -0.469,-0.409 -0.745,-0.551c-0.328,-0.169 -0.678,-0.285 -1.043,-0.342c-0.4,-0.063 -0.827,-0.098 -1.23,-0.041c-0.947,0.132 -2.317,0.969 -2.882,1.949c-0.254,0.438 -0.365,0.903 -0.318,1.355c0.049,0.472 0.261,0.95 0.75,1.378c0.651,0.57 1.644,0.996 2.535,0.969c0.336,1.641 1.016,3.142 2.149,4.451c-2.082,-1.098 -3.892,-2.19 -5.596,-4.002c-0.911,-0.971 -1.777,-2.028 -2.588,-3.085c-0.169,-0.221 -0.421,-0.687 -0.701,-0.983c-0.265,-0.281 -0.568,-0.455 -0.855,-0.519c-0.419,-0.093 -0.844,-0.012 -1.232,0.201c-0.379,0.209 -0.72,0.559 -0.936,0.847c-0.701,0.932 -1.016,2.098 -1.223,3.228c-0.185,1.014 -0.697,2.083 -0.882,3.077c-0.26,1.388 -0.041,2.66 1.522,3.652c0.486,0.308 1.006,0.585 1.522,0.839c2.825,1.392 6.626,1.69 9.725,1.725c0.997,0.012 1.987,-0.033 2.982,-0.05c0.128,-0.002 0.436,-0.017 0.565,-0.024c0.119,0.076 0.251,0.125 0.386,0.146c0.007,0.006 0.014,0.013 0.021,0.019c0.317,0.857 0.698,1.717 1.124,2.57c1.648,3.301 3.96,6.514 5.575,9.108c0.292,0.468 0.909,0.612 1.378,0.32c0.468,-0.292 0.612,-0.909 0.32,-1.378c-1.587,-2.548 -3.864,-5.701 -5.483,-8.944c-0.284,-0.567 -0.547,-1.137 -0.782,-1.706c2.572,-0.62 5.11,-1.515 7.664,-2.187c0.767,-0.202 1.677,-0.361 2.487,-0.675c0.664,-0.259 1.265,-0.617 1.728,-1.129c0.509,-0.562 0.754,-1.381 0.758,-2.273c0.006,-1.114 -0.355,-2.335 -0.749,-3.064c-0.44,-0.815 -1.029,-1.507 -2.048,-1.542c-0.973,-0.033 -2.047,0.285 -3.098,0.786c-1.385,0.66 -2.741,1.631 -3.737,2.281c-1.517,0.992 -2.733,2.341 -4.099,3.489c-0.002,-0.029 -0.003,-0.058 -0.004,-0.087c-0.15,-3.157 0.664,-6.375 1.936,-9.503c3.852,1.339 8.841,2.465 12.615,0.443c0.759,-0.407 1.289,-0.998 1.761,-1.647c0.355,-0.487 0.67,-1.012 1.108,-1.449c0.582,-0.583 1.348,-1.146 1.928,-1.809c0.76,-0.87 1.237,-1.887 1.009,-3.197c-0.078,-0.449 -0.279,-0.738 -0.512,-0.937c-0.241,-0.206 -0.539,-0.324 -0.875,-0.354c-0.339,-0.029 -0.745,0.056 -1.079,0.137c-1.158,0.282 -2.276,0.712 -3.435,0.996c-2.643,0.65 -5.31,1.197 -7.963,1.805c-0.265,0.06 -0.645,0.147 -1.072,0.245c1.17,-0.674 2.385,-1.272 3.639,-1.766c0.744,0.64 1.874,0.602 2.817,0.033c0.988,-0.596 1.608,-1.712 1.385,-2.654c-0.212,-0.897 -0.875,-1.398 -1.717,-1.547c-0.971,-0.172 -2.188,0.222 -2.792,0.823c-0.411,0.41 -0.546,0.987 -0.574,1.543c-0.617,0.247 -1.225,0.518 -1.823,0.809c0.664,-1.113 1.324,-2.188 1.948,-3.217c0.24,-0.395 0.484,-0.79 0.731,-1.185c1.799,1.051 3.961,1.499 6.221,1.582c3.26,0.12 6.729,-0.517 9.494,-1.014c2.578,-0.462 5.363,-1.356 6.716,-3.848c0.604,-1.113 0.639,-2.223 0.485,-3.342c-0.121,-0.88 -0.374,-1.763 -0.404,-2.658c-0.02,-0.606 0.078,-1.595 0.067,-2.487c-0.009,-0.763 -0.111,-1.466 -0.331,-1.937c-0.139,-0.298 -0.347,-0.484 -0.589,-0.599c-0.256,-0.121 -0.581,-0.163 -0.943,-0.067c-0.514,0.137 -1.244,0.718 -1.405,0.849c-1.363,1.105 -2.783,2.024 -4.337,2.856c-3.031,1.624 -6.145,3.209 -9.336,4.501c-0.722,0.292 -1.459,0.574 -2.201,0.828c0.329,-0.507 0.658,-1.015 0.985,-1.525c0.111,-0.033 0.217,-0.085 0.315,-0.158c0.669,-0.502 1.223,-1.162 1.871,-1.691c1.866,-1.523 4.274,-3.067 6.527,-4.105c0.02,-0.003 0.041,-0.007 0.061,-0.012c0.31,0.275 0.656,0.436 1.009,0.513c0.774,0.169 1.635,-0.094 2.311,-0.668c1.08,-0.916 1.612,-2.544 0.711,-3.866c-0.617,-0.904 -1.601,-0.908 -2.484,-0.57c-0.666,0.254 -2.02,1.175 -2.552,2.15c-0.149,0.271 -0.244,0.546 -0.282,0.82c-1.491,0.718 -3.028,1.627 -4.44,2.599c0.628,-1.102 1.223,-2.214 1.772,-3.34c0.207,-0.424 0.405,-0.862 0.596,-1.313c0.138,0.024 0.283,0.02 0.427,-0.018c2.402,-0.632 4.683,-1.471 6.982,-2.428c2.346,-0.978 4.508,-2.269 6.43,-3.943c0.346,-0.301 0.977,-0.81 1.332,-1.336c0.253,-0.376 0.387,-0.773 0.387,-1.147c-0,-0.486 -0.227,-0.918 -0.656,-1.268c-0.204,-0.166 -0.465,-0.317 -0.728,-0.46c-0.137,-0.074 -0.353,-0.209 -0.413,-0.246c-0.082,-0.152 -0.144,-0.388 -0.227,-0.631c-0.15,-0.44 -0.328,-0.9 -0.555,-1.243c-0.347,-0.526 -0.812,-0.83 -1.361,-0.87c-0.622,-0.046 -1.334,0.189 -2.021,0.593c-0.764,0.449 -1.512,1.102 -2.021,1.46c-2.197,1.544 -3.915,3.364 -5.55,5.406c0.475,-1.79 0.878,-3.587 1.233,-5.271c0.103,-0.073 0.193,-0.168 0.264,-0.281c1.469,-2.351 3.608,-4.522 5.48,-6.546c0.432,-0.467 1.202,-1.189 1.727,-1.95c0.48,-0.696 0.749,-1.439 0.683,-2.104c-0.085,-0.847 -0.587,-1.27 -1.263,-1.436c-0.548,-0.135 -1.294,-0.012 -1.737,0.089c-0.697,0.16 -1.395,0.412 -2.097,0.646c0.388,-0.729 0.654,-1.474 0.768,-2.315c1.061,-0.506 1.887,-1.62 1.81,-2.711c-0.04,-0.572 -0.293,-1.168 -0.911,-1.693c-0.813,-0.691 -2.186,-0.884 -3.2,-0.73c-1.116,0.169 -1.757,0.753 -2.056,1.435c-0.418,0.954 -0.146,2.267 0.87,3.248c0.45,0.434 0.905,0.614 1.404,0.688Zm-29.839,64.418c-1.751,-0.998 -3.325,-2.094 -4.831,-3.696c-0.957,-1.018 -1.866,-2.127 -2.717,-3.236c-0.087,-0.113 -0.279,-0.391 -0.419,-0.599c-0.049,0.047 -0.094,0.093 -0.12,0.128c-0.514,0.684 -0.703,1.556 -0.854,2.386c-0.154,0.842 -0.519,1.724 -0.76,2.57c-0.225,0.791 -0.365,1.56 0.503,2.111c0.426,0.27 0.883,0.512 1.336,0.734c2.571,1.268 6.042,1.487 8.863,1.519c0.744,0.009 1.483,-0.015 2.225,-0.034c-0.194,-0.147 -0.384,-0.307 -0.574,-0.441c-3.097,-0.564 -6.246,-0.823 -9.173,-2.069c-0.254,-0.108 -0.372,-0.402 -0.264,-0.656c0.108,-0.254 0.402,-0.372 0.656,-0.264c1.969,0.838 4.041,1.215 6.129,1.547Zm8.82,1.44c1.803,-0.52 3.597,-1.109 5.399,-1.583c0.596,-0.157 1.286,-0.281 1.936,-0.488c0.494,-0.157 0.972,-0.355 1.305,-0.724c0.206,-0.228 0.24,-0.579 0.241,-0.941c0.004,-0.764 -0.238,-1.603 -0.508,-2.103c-0.064,-0.117 -0.128,-0.234 -0.202,-0.341c-0.044,-0.062 -0.069,-0.15 -0.156,-0.153c-0.685,-0.024 -1.429,0.24 -2.169,0.592c-1.3,0.62 -2.568,1.54 -3.503,2.151c-1.408,0.919 -2.555,2.149 -3.804,3.238c1.271,-0.7 2.59,-1.343 3.895,-1.96c1.33,-0.629 2.735,-1.088 3.988,-1.878c0.234,-0.147 0.543,-0.076 0.69,0.157c0.147,0.234 0.076,0.543 -0.157,0.69c-1.288,0.81 -2.727,1.289 -4.094,1.935c-0.954,0.452 -1.916,0.917 -2.861,1.408Zm-8.734,-8.959c0.086,-0.067 0.184,-0.12 0.293,-0.156c0.349,-0.116 0.787,-0.412 1.053,-0.772c0.104,-0.141 0.218,-0.3 0.085,-0.449c-0.046,-0.05 -0.111,-0.077 -0.172,-0.108c-0.137,-0.071 -0.284,-0.121 -0.437,-0.145c-0.209,-0.032 -0.432,-0.065 -0.644,-0.036c-0.402,0.057 -0.942,0.381 -1.281,0.77c-0.121,0.139 -0.287,0.288 -0.128,0.427c0.305,0.267 0.761,0.501 1.175,0.474l0.056,-0.005Zm8.617,-4.244c3.353,1.169 7.619,2.258 10.87,0.517c0.478,-0.257 0.79,-0.652 1.088,-1.061c0.415,-0.57 0.798,-1.174 1.31,-1.687c0.554,-0.553 1.287,-1.081 1.837,-1.71c0.28,-0.321 0.512,-0.672 0.56,-1.1l-0.038,0.008c-1.156,0.282 -2.273,0.711 -3.43,0.996c-2.654,0.652 -5.332,1.202 -7.995,1.811c-0.763,0.175 -2.495,0.57 -3.514,0.804c-0.051,0.1 -0.101,0.201 -0.15,0.301c3.134,0.619 5.99,-0.19 9.139,-0.585c0.273,-0.034 0.524,0.161 0.558,0.434c0.034,0.274 -0.16,0.524 -0.434,0.559c-3.343,0.419 -6.369,1.25 -9.711,0.519c-0.03,0.065 -0.06,0.129 -0.09,0.194Zm-0.915,-2.616c-2.524,-1.608 -4.755,-3.519 -6.465,-6.013c-0.915,-1.334 -1.73,-2.733 -2.702,-4.03c-0.369,-0.491 -0.733,-1.165 -1.284,-1.475c-0.149,-0.084 -0.27,-0.135 -0.385,-0.111c-0.256,0.056 -0.422,0.306 -0.603,0.548c-0.381,0.507 -0.706,1.106 -1.039,1.523c-0.337,0.422 -0.776,0.635 -1.268,0.744c-0.211,0.046 -0.433,0.071 -0.65,0.103c-0.122,0.019 -0.275,-0.029 -0.334,0.114c-0.055,0.131 -0.059,0.279 -0.074,0.419c-0.022,0.212 -0.008,0.424 0.011,0.636c0.024,0.29 0.078,0.572 0.155,0.853c0.434,1.583 1.82,2.888 3.003,3.952c2.96,2.664 6.498,4.1 10.464,4.195c-3.103,-1.471 -5.565,-3.536 -8.355,-5.56c-0.223,-0.162 -0.273,-0.475 -0.111,-0.699c0.162,-0.223 0.475,-0.273 0.699,-0.111c2.85,2.069 5.346,4.191 8.575,5.642c0.119,-0.245 0.241,-0.488 0.363,-0.73Zm9.484,-5.255c-0.012,-0.008 -0.033,-0.005 -0.049,-0.01c-0.072,-0.02 -0.15,-0.027 -0.229,-0.027c-0.305,0 -0.643,0.089 -0.836,0.259c-0.006,0.038 -0.021,0.141 -0.023,0.2l0,0.059c0.069,0.047 0.133,0.103 0.189,0.169c0.022,0.001 0.069,0.002 0.097,-0.002c0.132,-0.02 0.265,-0.078 0.389,-0.153c0.137,-0.082 0.263,-0.188 0.358,-0.308c0.042,-0.052 0.088,-0.151 0.104,-0.187Zm-4.311,-3.726c-0.037,-0.066 -0.066,-0.136 -0.088,-0.212c-1.192,-4.173 -1.97,-8.887 -2.224,-13.212c-0.073,-1.24 0.044,-2.644 -0.004,-4.015c-0.036,-1.048 -0.163,-2.078 -0.64,-2.961c-0.053,0.041 -0.105,0.082 -0.145,0.115c-1.166,0.964 -2.088,2.323 -3.402,3.103c-0.783,0.465 -1.711,0.667 -2.666,0.777c-0.784,0.091 -1.585,0.118 -2.299,0.26c-0.191,0.039 -0.388,0.074 -0.57,0.13c-0.085,0.026 -0.198,0.022 -0.198,0.134c-0,1.806 1.321,3.672 2.203,5.147c1.91,3.194 4.024,6.049 6.386,8.918c0.419,0.508 1.057,1.603 1.788,2.482c-0.774,-1.554 -1.146,-3.271 -1.641,-4.926c-0.563,-1.878 -1.327,-3.655 -2.053,-5.47c-0.102,-0.256 0.023,-0.548 0.279,-0.65c0.256,-0.103 0.547,0.022 0.65,0.278c0.737,1.843 1.51,3.649 2.082,5.555c0.553,1.847 0.926,3.782 1.956,5.448c0.006,0.01 0.012,0.02 0.017,0.03l0.169,-0.278c0.132,-0.217 0.265,-0.435 0.4,-0.653Zm3.111,-1.185c1.514,0.865 3.332,1.205 5.224,1.275c3.114,0.114 6.426,-0.51 9.067,-0.984c2.005,-0.36 4.259,-0.896 5.311,-2.834c0.382,-0.703 0.359,-1.409 0.262,-2.116c-0.13,-0.947 -0.39,-1.9 -0.422,-2.863c-0.02,-0.617 0.078,-1.622 0.066,-2.529c-0.001,-0.077 -0.002,-0.154 -0.004,-0.229l-0.005,0.003c-1.462,1.186 -2.984,2.173 -4.651,3.066c-3.094,1.658 -6.273,3.273 -9.53,4.592c-1.027,0.415 -2.085,0.81 -3.143,1.141c-0.118,0.037 -0.264,0.076 -0.419,0.116c4.304,-0.272 8.414,-1.22 12.576,-2.535c0.263,-0.083 0.544,0.063 0.627,0.326c0.083,0.263 -0.063,0.545 -0.326,0.628c-4.764,1.504 -9.461,2.533 -14.444,2.65c-0.063,0.097 -0.126,0.195 -0.189,0.293Zm14.569,-13.912c-0.061,0.015 -0.135,0.035 -0.183,0.053c-0.292,0.112 -0.797,0.437 -1.184,0.827l-0.041,0.043c0.062,0.057 0.117,0.124 0.163,0.199c0.213,0.34 0.574,0.188 0.827,-0.026c0.315,-0.268 0.588,-0.7 0.418,-1.096Zm-13.364,-1.964c0.044,-0.102 0.07,-0.191 0.051,-0.273c-0.034,-0.149 -0.181,-0.232 -0.33,-0.312c-0.201,-0.106 -0.438,-0.174 -0.68,-0.207c-0.317,-0.043 -0.645,-0.028 -0.916,0.07c-0.163,0.059 -0.303,0.165 -0.272,0.367c0.044,0.278 0.129,0.532 0.257,0.781c0.097,0.188 0.238,0.289 0.442,0.351c0.12,0.036 0.231,0.031 0.339,0.015c0.19,-0.215 0.43,-0.391 0.696,-0.543c0.128,-0.073 0.362,-0.217 0.413,-0.249Zm5.598,-0.339l0.06,0.095c-0.298,-2.709 -0.596,-5.49 -1.034,-8.175c-0.207,-1.266 -0.405,-2.786 -1.167,-3.87c-0.235,0.146 -0.448,0.326 -0.684,0.464c-0.338,0.197 -0.704,0.336 -1.131,0.365c-0.381,0.025 -1.429,-0.237 -2.399,-0.342c-0.208,-0.023 -0.493,-0.011 -0.679,0.001c0.047,0.144 0.139,0.296 0.22,0.451c0.229,0.441 0.505,0.867 0.657,1.191c1.099,2.336 2.675,4.451 4.095,6.595c0.042,0.062 0.083,0.125 0.125,0.188c-0.51,-1.83 -1.015,-3.651 -1.898,-5.38c-0.126,-0.245 -0.028,-0.547 0.218,-0.672c0.245,-0.126 0.547,-0.028 0.672,0.218c1.416,2.771 1.885,5.774 2.917,8.678c0.022,0.063 0.031,0.129 0.028,0.193Zm4.06,-1.188c1.535,-0.496 3.035,-1.072 4.543,-1.701c2.146,-0.894 4.127,-2.072 5.885,-3.604c0.196,-0.17 0.514,-0.417 0.781,-0.697c0.034,-0.036 0.072,-0.083 0.108,-0.131c-0.082,-0.051 -0.172,-0.105 -0.24,-0.142c-0.46,-0.25 -0.868,-0.542 -1.067,-0.851c-0.207,-0.32 -0.388,-0.956 -0.616,-1.528c-0.042,-0.106 -0.122,-0.252 -0.174,-0.343c-0.225,0.036 -0.462,0.172 -0.706,0.316c-0.714,0.42 -1.409,1.037 -1.885,1.372c-2.292,1.612 -4.017,3.556 -5.707,5.742c2.342,-1.251 4.472,-2.903 6.632,-4.422c0.226,-0.159 0.538,-0.104 0.697,0.121c0.158,0.226 0.104,0.538 -0.122,0.697c-2.614,1.838 -5.19,3.858 -8.129,5.171Zm1.373,-12.442c1.277,-1.596 2.733,-3.113 4.065,-4.553c0.385,-0.416 1.081,-1.05 1.549,-1.728c0.101,-0.147 0.203,-0.291 0.268,-0.433c-0.179,0.019 -0.387,0.044 -0.493,0.068c-1.679,0.385 -3.372,1.218 -5.107,1.269c-0.442,0.013 -0.972,-0.106 -1.501,-0.199c-0.203,-0.036 -0.406,-0.067 -0.598,-0.06c-0.102,0.005 -0.206,0.012 -0.276,0.102c-0.129,0.163 -0.128,0.399 -0.132,0.631c-0.008,0.416 0.055,0.844 0.092,1.183c0.148,1.363 0.452,2.672 0.885,3.971c0.03,0.093 0.068,0.19 0.11,0.292c0.074,-0.329 0.141,-0.657 0.207,-0.977c0.2,-0.962 0.433,-1.844 0.483,-2.831c0.013,-0.275 0.248,-0.488 0.524,-0.474c0.276,0.014 0.488,0.249 0.474,0.524c-0.052,1.04 -0.291,1.971 -0.502,2.985c-0.016,0.076 -0.032,0.153 -0.048,0.23Zm2.52,-11.976c0.035,-0.016 0.072,-0.031 0.11,-0.044c0.491,-0.163 1.112,-0.68 0.588,-1.125c-0.403,-0.343 -1.102,-0.353 -1.605,-0.277c-0.261,0.04 -0.455,0.102 -0.525,0.261c-0.135,0.31 0.098,0.687 0.428,1.006c0.297,0.287 0.63,0.183 1.004,0.179Z"/>
</g>
</svg>